<svg width="121" height="103" viewBox="0 0 121 103" fill="none" xmlns="http://www.w3.org/2000/svg">
<path fill-rule="evenodd" clip-rule="evenodd" d="M121 51.5C121 79.9427 93.9132 103 60.5 103C27.0868 103 0 79.9427 0 51.5C0 23.0573 27.0868 0 60.5 0C93.9132 0 121 23.0573 121 51.5ZM59.5 97C84.629 97 105 76.629 105 51.5C105 26.371 84.629 6 59.5 6C34.371 6 14 26.371 14 51.5C14 76.629 34.371 97 59.5 97Z" fill="#909294"/>
<path d="M47.25 4L60.25 15.7396V53L47.25 41.7708V4Z" fill="#909294"/>
<path d="M14.2469 24.7531L34.5458 25.7958L48.2531 39.9969L27.9542 38.9542L14.2469 24.7531Z" fill="#909294"/>
<path d="M12 64L23.7396 51H61L49.7708 64H12Z" fill="#909294"/>
<path d="M32.7531 97.0031L33.7958 76.7042L47.9969 62.9969L46.9542 83.2958L32.7531 97.0031Z" fill="#909294"/>
<path d="M73 99L60 87.2604L60 50L73 61.2292V99Z" fill="#909294"/>
<path d="M106.003 78.2469L85.7042 77.2042L71.9969 63.0031L92.2958 64.0458L106.003 78.2469Z" fill="#909294"/>
<path d="M108 38.25L96.2604 51.25L59 51.25L70.2292 38.25L108 38.25Z" fill="#909294"/>
<path d="M87.2469 5.24687L86.2042 25.5458L72.0031 39.2531L73.0458 18.9542L87.2469 5.24687Z" fill="#909294"/>
</svg>
