<svg width="382" height="518" viewBox="0 0 382 518" fill="none" xmlns="http://www.w3.org/2000/svg">
<path fill-rule="evenodd" clip-rule="evenodd" d="M252 261.5C252 289.943 224.913 313 191.5 313C158.087 313 131 289.943 131 261.5C131 233.057 158.087 210 191.5 210C224.913 210 252 233.057 252 261.5ZM190.5 307C215.629 307 236 286.629 236 261.5C236 236.371 215.629 216 190.5 216C165.371 216 145 236.371 145 261.5C145 286.629 165.371 307 190.5 307Z" fill="#909294" fill-opacity="0.2"/>
<path d="M178.25 214L191.25 225.74V263L178.25 251.771V214Z" fill="#909294" fill-opacity="0.2"/>
<path d="M145.247 234.753L165.546 235.796L179.253 249.997L158.954 248.954L145.247 234.753Z" fill="#909294" fill-opacity="0.2"/>
<path d="M143 274L154.74 261H192L180.771 274H143Z" fill="#909294" fill-opacity="0.2"/>
<path d="M163.753 307.003L164.796 286.704L178.997 272.997L177.954 293.296L163.753 307.003Z" fill="#909294" fill-opacity="0.2"/>
<path d="M204 309L191 297.26V260L204 271.229V309Z" fill="#909294" fill-opacity="0.2"/>
<path d="M237.003 288.247L216.704 287.204L202.997 273.003L223.296 274.046L237.003 288.247Z" fill="#909294" fill-opacity="0.2"/>
<path d="M239 248.25L227.26 261.25H190L201.229 248.25H239Z" fill="#909294" fill-opacity="0.2"/>
<path d="M218.247 215.247L217.204 235.546L203.003 249.253L204.046 228.954L218.247 215.247Z" fill="#909294" fill-opacity="0.2"/>
</svg>
